<svg width="25" height="25" viewBox="0 0 25 25" fill="none" xmlns="http://www.w3.org/2000/svg">
<path d="M11.0996 9.37528H12.8246C13.2822 9.37528 13.7209 9.55702 14.0444 9.88054C14.368 10.204 14.5497 10.6428 14.5497 11.1003M11.0996 9.37528H9.37453C8.91702 9.37528 8.47824 9.55702 8.15473 9.88054C7.83122 10.204 7.64948 10.6428 7.64948 11.1003V11.6754C7.64948 12.1329 7.83122 12.5716 8.15473 12.8952C8.47824 13.2187 8.91702 13.4004 9.37453 13.4004H12.8246C13.2822 13.4004 13.7209 13.5822 14.0444 13.9057C14.368 14.2292 14.5497 14.668 14.5497 15.1255V15.7005C14.5497 16.158 14.368 16.5968 14.0444 16.9203C13.7209 17.2438 13.2822 17.4255 12.8246 17.4255H11.0996M11.0996 9.37528V7.65022M11.0996 17.4255H9.37453C8.91702 17.4255 8.47824 17.2438 8.15473 16.9203C7.83122 16.5968 7.64948 16.158 7.64948 15.7005M11.0996 17.4255V19.1506" stroke="black" stroke-width="1.5" stroke-linecap="round" stroke-linejoin="round"/>
<path d="M12.2496 3.11333C10.1176 2.87512 7.96424 3.30527 6.08736 4.3443C4.21048 5.38333 2.70283 6.97989 1.77292 8.91316C0.843018 10.8464 0.536811 13.0209 0.896653 15.1358C1.2565 17.2507 2.2646 19.2015 3.78155 20.7184C5.2985 22.2354 7.24933 23.2435 9.36422 23.6033C11.4791 23.9632 13.6536 23.657 15.5868 22.7271C17.5201 21.7972 19.1167 20.2895 20.1557 18.4126C21.1947 16.5358 21.6249 14.3824 21.3867 12.2504M19.7249 0.75V8.80026M23.75 4.77513H15.6997" stroke="black" stroke-width="1.5" stroke-linecap="round" stroke-linejoin="round"/>
</svg>
